<svg xmlns="http://www.w3.org/2000/svg" viewBox="0 0 53 16"><path fill="#45911d" d="M45.49 16H7.51C3.37 16 0 12.61 0 8.44v-.88C0 3.39 3.37 0 7.51 0h37.98C49.63 0 53 3.39 53 7.56v.89c0 4.16-3.37 7.55-7.51 7.55M7.51.89C3.86.89.89 3.88.89 7.56v.89c0 3.68 2.97 6.67 6.62 6.67h37.98c3.65 0 6.62-2.99 6.62-6.67v-.89c0-3.68-2.97-6.67-6.62-6.67z"/><path fill="#45911d" d="M16.08 11.73h-1.36l-.67-1.9h-2.94l-.65 1.9H9.11l2.8-7.47h1.4zm-2.36-2.91-1.04-2.98c-.03-.1-.06-.25-.1-.47h-.02c-.03.2-.07.35-.1.47l-1.03 2.98zm3.39 2.91V4.27h2.16c2.75 0 4.13 1.21 4.13 3.64 0 1.15-.38 2.08-1.15 2.78s-1.79 1.05-3.07 1.05h-2.07zm1.23-6.41v5.37h.99c.87 0 1.55-.24 2.03-.72s.73-1.16.73-2.03c0-1.75-.9-2.62-2.71-2.62zm6.42 6.41V4.27h2.16c2.75 0 4.13 1.21 4.13 3.64 0 1.15-.38 2.08-1.15 2.78-.76.7-1.79 1.05-3.07 1.05h-2.07zM26 5.32v5.37h.99c.87 0 1.55-.24 2.03-.72s.73-1.16.73-2.03c0-1.75-.9-2.62-2.71-2.62zm10.6 6.41h-4.19V4.27h4.03v1.05h-2.79v2.11h2.57v1.05h-2.57v2.21h2.95zm1.33 0V4.27h2.16c2.75 0 4.13 1.21 4.13 3.64 0 1.15-.38 2.08-1.15 2.78s-1.79 1.05-3.07 1.05h-2.07zm1.24-6.41v5.37h.99c.87 0 1.55-.24 2.03-.72s.73-1.16.73-2.03c0-1.75-.9-2.62-2.71-2.62z"/></svg>