<svg version="1.2" baseProfile="tiny" xmlns="http://www.w3.org/2000/svg" viewBox="0 0 80 24" overflow="visible"><path fill="#45911D" d="M68.67 24H11.33C5.08 24 0 18.92 0 12.67v-1.33C0 5.08 5.08 0 11.33 0h57.33C74.92 0 80 5.08 80 11.33v1.33C80 18.92 74.92 24 68.67 24zM11.33 1.33c-5.51 0-10 4.49-10 10v1.33c0 5.51 4.49 10 10 10h57.33c5.51 0 10-4.49 10-10v-1.33c0-5.51-4.49-10-10-10H11.33z"/><g fill="#45911D"><path d="M24.13 17.6h-2.04l-1.01-2.85h-4.41l-.97 2.85h-2.03l4.2-11.2h2.09l4.17 11.2zm-3.54-4.37l-1.55-4.47c-.05-.15-.1-.38-.15-.7h-.03c-.05.3-.1.53-.16.7l-1.54 4.47h3.43zM25.66 17.6V6.4h3.23c4.13 0 6.2 1.82 6.2 5.46 0 1.73-.57 3.12-1.72 4.17-1.15 1.05-2.68 1.57-4.61 1.57h-3.1zm1.86-9.62v8.05H29c1.31 0 2.32-.36 3.05-1.08.73-.72 1.09-1.73 1.09-3.05 0-2.62-1.36-3.93-4.07-3.93h-1.55zM37.14 17.6V6.4h3.23c4.13 0 6.2 1.82 6.2 5.46 0 1.73-.57 3.12-1.72 4.17-1.15 1.05-2.68 1.57-4.61 1.57h-3.1zm1.85-9.62v8.05h1.48c1.31 0 2.33-.36 3.05-1.08s1.09-1.73 1.09-3.05c0-2.62-1.36-3.93-4.07-3.93h-1.55zM54.91 17.6h-6.29V6.4h6.04v1.58h-4.18v3.17h3.85v1.57h-3.85v3.31h4.43v1.57zM56.9 17.6V6.4h3.23c4.13 0 6.2 1.82 6.2 5.46 0 1.73-.57 3.12-1.72 4.17-1.15 1.05-2.68 1.57-4.61 1.57h-3.1zm1.85-9.62v8.05h1.48c1.31 0 2.32-.36 3.05-1.08.73-.72 1.09-1.73 1.09-3.05 0-2.62-1.36-3.93-4.07-3.93h-1.55z"/></g></svg>