<svg version="1.2" baseProfile="tiny" xmlns="http://www.w3.org/2000/svg" viewBox="0 0 130 24" overflow="visible"><g fill="#F15A24"><path d="M8.83 17.6V6.4h3.23c4.13 0 6.2 1.82 6.2 5.46 0 1.73-.57 3.12-1.72 4.17s-2.68 1.57-4.61 1.57h-3.1zm1.85-9.62v8.05h1.48c1.31 0 2.32-.36 3.05-1.08s1.09-1.73 1.09-3.05c0-2.62-1.36-3.93-4.07-3.93h-1.55zM24.92 17.79c-1.61 0-2.91-.52-3.88-1.57s-1.46-2.41-1.46-4.09c0-1.8.5-3.24 1.48-4.31s2.33-1.61 4.03-1.61c1.57 0 2.84.52 3.8 1.56s1.44 2.4 1.44 4.09c0 1.83-.49 3.27-1.48 4.34s-2.28 1.59-3.93 1.59zm.09-9.95c-1.03 0-1.86.38-2.5 1.15s-.96 1.77-.96 3.02.31 2.25.94 3.01 1.44 1.14 2.45 1.14c1.07 0 1.92-.36 2.54-1.09s.93-1.74.93-3.04c0-1.34-.3-2.37-.9-3.1s-1.44-1.09-2.5-1.09zM46.3 6.4l-3.07 11.2h-2.1L39 9.76c-.09-.33-.14-.7-.16-1.09h-.04c-.03.37-.09.73-.19 1.08l-2.14 7.85h-2.15L31.19 6.4h2.04l2.03 8.2c.08.34.14.7.16 1.08h.04c.02-.27.09-.62.22-1.08l2.3-8.2h1.91l2.12 8.27c.07.28.13.61.16 1h.03c.02-.26.08-.6.18-1.03l1.99-8.23h1.93zM57.35 17.6h-2.03l-5.35-8.23c-.14-.21-.25-.42-.34-.65h-.05c.04.24.06.75.06 1.54v7.34h-1.8V6.4H50l5.17 8.04c.22.33.36.56.42.69h.03c-.05-.3-.08-.8-.08-1.51V6.4h1.79v11.2zM68.87 16.84c-1.17.64-2.47.95-3.9.95-1.66 0-3-.52-4.02-1.55s-1.54-2.4-1.54-4.09c0-1.73.56-3.16 1.68-4.27s2.55-1.67 4.28-1.67c1.25 0 2.29.18 3.14.55v1.91c-.86-.57-1.88-.86-3.07-.86s-2.17.39-2.93 1.18-1.14 1.8-1.14 3.05c0 1.29.33 2.3.98 3.04s1.55 1.11 2.67 1.11c.77 0 1.44-.15 2-.45v-2.66h-2.36v-1.56h4.21v5.32zM79.94 17.6h-2.17l-1.79-3c-.16-.28-.32-.51-.47-.71s-.31-.36-.47-.48-.33-.22-.52-.27-.4-.09-.63-.09h-.75v4.55h-1.85V6.4h3.69c.53 0 1.01.06 1.45.19s.83.31 1.16.57.58.57.77.95.28.82.28 1.32c0 .4-.06.76-.18 1.09s-.28.62-.5.88-.48.48-.78.66-.65.32-1.03.42v.03c.2.11.38.24.53.38s.29.28.43.43.27.31.4.5.28.4.44.64l1.99 3.14zm-6.81-9.69v3.64h1.55c.29 0 .55-.04.79-.13s.45-.22.63-.38.32-.37.41-.61.15-.51.15-.8c0-.54-.17-.96-.51-1.26s-.83-.45-1.46-.45h-1.56zM90.45 17.6h-2.04l-1.01-2.85h-4.41l-.97 2.85h-2.03l4.2-11.2h2.09l4.17 11.2zm-3.54-4.37l-1.55-4.47c-.05-.15-.1-.38-.15-.7h-.03c-.05.3-.1.53-.16.7l-1.54 4.47h3.43zM91.98 17.6V6.4h3.23c4.13 0 6.2 1.82 6.2 5.46 0 1.73-.57 3.12-1.72 4.17s-2.68 1.57-4.61 1.57h-3.1zm1.86-9.62v8.05h1.48c1.31 0 2.32-.36 3.05-1.08s1.09-1.73 1.09-3.05c0-2.62-1.36-3.93-4.07-3.93h-1.55zM109.75 17.6h-6.29V6.4h6.04v1.58h-4.18v3.17h3.85v1.57h-3.85v3.31h4.43v1.57zM111.74 17.6V6.4h3.23c4.13 0 6.2 1.82 6.2 5.46 0 1.73-.57 3.12-1.72 4.17s-2.68 1.57-4.61 1.57h-3.1zm1.85-9.62v8.05h1.48c1.31 0 2.32-.36 3.05-1.08s1.09-1.73 1.09-3.05c0-2.62-1.36-3.93-4.07-3.93h-1.55z"/></g><path fill="#F15A24" d="M118.36 24H11.64C5.22 24 0 18.84 0 12.49v-.99C0 5.16 5.22 0 11.64 0h106.73C124.78 0 130 5.16 130 11.51v.99c0 6.34-5.22 11.5-11.64 11.5zM11.64 1.31C5.96 1.31 1.33 5.88 1.33 11.5v.99c0 5.62 4.62 10.19 10.31 10.19h106.73c5.68 0 10.31-4.57 10.31-10.19v-.99c0-5.62-4.62-10.19-10.31-10.19H11.64z"/></svg>