<svg xmlns="http://www.w3.org/2000/svg" viewBox="0 0 89 16"><path fill="#f15a24" d="M7.05 11.8V4.33h2.16c2.75 0 4.13 1.21 4.13 3.64 0 1.15-.38 2.08-1.15 2.78S10.4 11.8 9.12 11.8zm1.24-6.42v5.37h.99c.87 0 1.55-.24 2.03-.72s.73-1.16.73-2.03c0-1.75-.9-2.62-2.71-2.62zm9.49 6.54c-1.08 0-1.94-.35-2.59-1.05s-.97-1.61-.97-2.72c0-1.2.33-2.16.99-2.87.66-.72 1.56-1.07 2.69-1.07 1.05 0 1.89.35 2.53 1.04s.96 1.6.96 2.72c0 1.22-.33 2.18-.98 2.89s-1.53 1.06-2.63 1.06m.06-6.63c-.68 0-1.24.26-1.67.77s-.64 1.18-.64 2.02c0 .83.21 1.5.62 2.01.42.51.96.76 1.64.76.72 0 1.28-.24 1.69-.72s.62-1.16.62-2.03q0-1.335-.6-2.07c-.4-.5-.96-.74-1.66-.74m14.19-.96-2.05 7.47h-1.4l-1.42-5.22c-.06-.22-.1-.47-.11-.73h-.02q-.03.375-.12.72l-1.43 5.23h-1.43l-2.09-7.47h1.36l1.35 5.47c.06.23.09.47.1.72h.03q.015-.27.15-.72l1.53-5.47h1.28l1.42 5.51c.05.19.09.41.11.67h.02q.015-.255.12-.69l1.33-5.49zm7.37 7.47h-1.35l-3.57-5.49c-.09-.14-.16-.28-.22-.43h-.03c.03.16.04.5.04 1.03v4.9h-1.2V4.33h1.44l3.45 5.36c.15.22.24.38.28.46h.02c-.03-.2-.05-.53-.05-1.01V4.33h1.19zm7.68-.51c-.78.42-1.64.64-2.6.64-1.1 0-2-.34-2.68-1.03s-1.03-1.6-1.03-2.73c0-1.16.37-2.1 1.12-2.85s1.7-1.11 2.85-1.11c.83 0 1.53.12 2.09.36v1.28c-.57-.38-1.26-.57-2.05-.57s-1.45.26-1.96.79-.76 1.2-.76 2.04c0 .86.22 1.53.66 2.02s1.03.74 1.78.74c.51 0 .96-.1 1.33-.3V8.78h-1.57V7.74h2.81v3.55zm7.38.51h-1.45l-1.19-2c-.11-.18-.21-.34-.32-.47-.1-.14-.2-.24-.31-.33-.11-.08-.22-.14-.35-.18-.12-.04-.27-.06-.42-.06h-.5v3.03h-1.23V4.33h2.46c.35 0 .67.04.97.12.29.08.55.21.77.38.21.17.39.38.51.63s.18.55.18.88c0 .26-.04.51-.12.73s-.19.42-.33.59-.32.32-.52.44-.43.22-.68.28v.02c.14.08.25.16.35.25s.2.19.29.28q.135.15.27.33c.135.18.19.27.29.43zm-4.54-6.47v2.43h1.03c.19 0 .37-.03.53-.09a1.2 1.2 0 0 0 .7-.67c.07-.16.1-.34.1-.54 0-.36-.11-.64-.34-.84s-.55-.3-.97-.3h-1.05zm11.54 6.47H60.1l-.67-1.9h-2.94l-.65 1.9h-1.35l2.8-7.47h1.4zM59.1 8.88 58.07 5.9c-.03-.1-.06-.25-.1-.47h-.02c-.03.2-.07.35-.1.47l-1.03 2.98zm3.39 2.92V4.33h2.16c2.75 0 4.13 1.21 4.13 3.64 0 1.15-.38 2.08-1.15 2.78s-1.79 1.05-3.07 1.05zm1.23-6.42v5.37h.99c.87 0 1.55-.24 2.03-.72s.73-1.16.73-2.03c0-1.75-.9-2.62-2.71-2.62zm10.61 6.42h-4.19V4.33h4.03v1.05h-2.79v2.11h2.57v1.05h-2.57v2.21h2.95zm1.33 0V4.33h2.16c2.75 0 4.13 1.21 4.13 3.64 0 1.15-.38 2.08-1.15 2.78s-1.79 1.05-3.07 1.05zm1.24-6.42v5.37h.99c.87 0 1.55-.24 2.03-.72s.73-1.16.73-2.03c0-1.75-.9-2.62-2.71-2.62z"/><path fill="#f15a24" d="M81.03 16H7.97C3.57 16 0 12.56 0 8.33v-.66C0 3.44 3.57 0 7.97 0h73.07C85.43 0 89 3.44 89 7.67v.66c0 4.23-3.57 7.67-7.97 7.67M7.97.87C4.08.87.91 3.92.91 7.67v.66c0 3.75 3.17 6.8 7.06 6.8h73.07c3.89 0 7.06-3.05 7.06-6.8v-.66c0-3.75-3.17-6.8-7.06-6.8z"/></svg>