<svg version="1.2" baseProfile="tiny" xmlns="http://www.w3.org/2000/svg" viewBox="0 0 98 24" overflow="visible"><g fill="#C1272D"><path d="M21.11 17.6h-2.17l-1.79-3c-.16-.28-.32-.51-.47-.71s-.31-.36-.47-.48-.33-.22-.52-.27c-.19-.06-.4-.09-.63-.09h-.76v4.55h-1.85V6.4h3.69c.53 0 1.01.06 1.45.19s.83.31 1.16.57c.33.25.58.57.77.95.18.38.28.82.28 1.32 0 .4-.06.76-.18 1.09-.12.33-.28.62-.5.88s-.48.48-.78.66c-.3.18-.65.32-1.03.42v.03c.2.11.38.24.53.38.15.14.29.28.43.43.14.15.27.31.4.5.13.18.28.4.44.64l2 3.14zM14.3 7.91v3.64h1.55c.29 0 .55-.04.79-.13a2 2 0 00.63-.38c.18-.17.32-.37.41-.61.1-.24.15-.51.15-.8 0-.54-.17-.96-.51-1.26-.34-.3-.83-.45-1.46-.45H14.3zM28.7 17.6h-6.29V6.4h6.04v1.58h-4.18v3.17h3.85v1.57h-3.85v3.31h4.43v1.57zM42.72 17.6h-1.84v-7.25c0-.59.04-1.32.11-2.18h-.03c-.11.49-.22.84-.3 1.05l-3.34 8.38h-1.28l-3.35-8.31c-.09-.24-.19-.62-.3-1.12h-.03c.04.45.06 1.18.06 2.2v7.23H30.7V6.4h2.62l2.95 7.46c.22.57.37 1 .44 1.28h.04c.19-.59.35-1.03.47-1.31l3-7.43h2.52v11.2zM50.1 17.79c-1.61 0-2.91-.52-3.88-1.57s-1.46-2.41-1.46-4.09c0-1.8.5-3.24 1.48-4.31.99-1.07 2.33-1.61 4.03-1.61 1.57 0 2.84.52 3.8 1.56s1.44 2.4 1.44 4.09c0 1.83-.49 3.27-1.48 4.34s-2.29 1.59-3.93 1.59zm.08-9.95c-1.03 0-1.86.38-2.5 1.15s-.96 1.77-.96 3.02c0 1.24.31 2.25.94 3.01.62.76 1.44 1.14 2.45 1.14 1.07 0 1.92-.36 2.54-1.09.62-.72.93-1.74.93-3.04 0-1.34-.3-2.37-.9-3.1-.61-.72-1.44-1.09-2.5-1.09zM66.36 6.4l-4.02 11.2h-2.08L56.3 6.4h2.03l2.77 8.5c.09.27.16.59.2.95h.03c.04-.3.11-.62.23-.96l2.83-8.48h1.97zM74.13 17.6h-6.29V6.4h6.04v1.58H69.7v3.17h3.85v1.57H69.7v3.31h4.43v1.57zM76.12 17.6V6.4h3.23c4.13 0 6.2 1.82 6.2 5.46 0 1.73-.57 3.12-1.72 4.17-1.15 1.05-2.68 1.57-4.61 1.57h-3.1zm1.85-9.62v8.06h1.48c1.31 0 2.32-.36 3.05-1.08s1.09-1.73 1.09-3.05c0-2.62-1.36-3.93-4.07-3.93h-1.55z"/></g><path fill="#C1272D" d="M86.37 24H11.63C5.22 24 0 18.84 0 12.49v-.99C0 5.16 5.22 0 11.63 0h74.75C92.78 0 98 5.16 98 11.51v.99C98 18.84 92.78 24 86.37 24zM11.63 1.31c-5.68 0-10.3 4.57-10.3 10.19v.99c0 5.62 4.62 10.19 10.3 10.19h74.75c5.68 0 10.3-4.57 10.3-10.19v-.99c0-5.62-4.62-10.19-10.3-10.19H11.63z"/></svg>