<svg xmlns="http://www.w3.org/2000/svg" viewBox="0 0 66 16"><path fill="#c1272d" d="M14.4 11.73h-1.45l-1.19-2c-.11-.18-.21-.34-.32-.47-.1-.13-.21-.24-.31-.32-.11-.08-.22-.14-.35-.18-.12-.04-.27-.06-.42-.06h-.5v3.03H8.63V4.27h2.46c.35 0 .67.04.97.12.29.08.55.21.77.38q.33.255.51.63c.18.375.18.55.18.88 0 .26-.04.51-.12.73s-.19.42-.33.59-.32.32-.52.44-.43.22-.68.28v.02c.14.08.25.16.35.25s.2.19.29.28q.135.15.27.33c.09.12.19.27.29.43zM9.87 5.27V7.7h1.03c.19 0 .37-.03.53-.09a1.2 1.2 0 0 0 .7-.67c.07-.16.1-.34.1-.54 0-.36-.11-.64-.34-.84s-.55-.3-.97-.3H9.87zm9.6 6.46h-4.19V4.27h4.03v1.05h-2.79v2.11h2.57v1.05h-2.57v2.21h2.95zm9.35 0h-1.23V6.9c0-.4.02-.88.07-1.45h-.02c-.08.33-.14.56-.2.7l-2.23 5.58h-.85l-2.23-5.54c-.06-.16-.13-.41-.2-.74h-.03c.03.3.04.79.04 1.46v4.82h-1.15V4.27h1.74l1.96 4.97c.15.38.25.67.29.85h.03c.13-.39.23-.68.31-.88l2-4.95h1.68v7.47zm4.91.13c-1.08 0-1.94-.35-2.59-1.05s-.97-1.61-.97-2.72q0-1.8.99-2.88c.66-.72 1.56-1.07 2.69-1.07 1.05 0 1.89.35 2.53 1.04s.96 1.6.96 2.72c0 1.22-.33 2.18-.98 2.89-.65.72-1.53 1.07-2.63 1.07m.06-6.63c-.68 0-1.24.26-1.67.77s-.64 1.18-.64 2.02c0 .83.21 1.5.62 2.01.42.51.96.76 1.64.76.72 0 1.28-.24 1.69-.72s.62-1.16.62-2.03q0-1.335-.6-2.07c-.4-.5-.96-.74-1.66-.74m10.78-.96-2.68 7.47H40.5l-2.64-7.47h1.35l1.84 5.67c.06.18.1.39.14.63h.02c.02-.2.07-.41.15-.64l1.89-5.66zm5.18 7.46h-4.19V4.27h4.03v1.05H46.8v2.11h2.57v1.05H46.8v2.21h2.95zm1.33 0V4.27h2.16c2.75 0 4.13 1.21 4.13 3.64 0 1.15-.38 2.08-1.15 2.78-.76.7-1.79 1.05-3.07 1.05h-2.07zm1.24-6.41v5.37h.99c.87 0 1.55-.24 2.03-.72s.73-1.16.73-2.03c0-1.75-.9-2.62-2.71-2.62z"/><path fill="#c1272d" d="M58.17 16H7.83C3.51 16 0 12.56 0 8.33v-.66C0 3.44 3.51 0 7.83 0h50.34C62.49 0 66 3.44 66 7.67v.66c0 4.23-3.51 7.67-7.83 7.67M7.83.87C4 .87.89 3.92.89 7.67v.66c0 3.75 3.11 6.8 6.94 6.8h50.34c3.83 0 6.94-3.05 6.94-6.8v-.66c0-3.75-3.11-6.8-6.94-6.8z"/></svg>