<svg version="1.2" baseProfile="tiny" xmlns="http://www.w3.org/2000/svg" viewBox="0 0 89 24" overflow="visible"><g fill="#F7931E"><path d="M19.2 12.98c0 3.15-1.49 4.72-4.47 4.72-2.85 0-4.28-1.51-4.28-4.54V6.3h1.86v6.47c0 2.2.85 3.3 2.56 3.3 1.65 0 2.47-1.06 2.47-3.18V6.3h1.86v6.68zM23.68 13.45v4.06h-1.85V6.3h3.4c1.29 0 2.28.3 2.99.9s1.06 1.44 1.06 2.53-.37 1.98-1.11 2.67-1.74 1.04-3 1.04h-1.49zm0-5.61v4.09h1.2c.8 0 1.4-.18 1.82-.55s.62-.89.62-1.56c0-1.32-.77-1.98-2.3-1.98h-1.34zM31.18 17.51V6.3h3.23c4.13 0 6.2 1.82 6.2 5.46 0 1.73-.57 3.12-1.72 4.17s-2.68 1.57-4.61 1.57h-3.1zm1.85-9.63v8.05h1.48c1.31 0 2.32-.36 3.05-1.08s1.09-1.73 1.09-3.05c0-2.62-1.36-3.93-4.07-3.93h-1.55zM51.61 17.51h-2.04l-1.01-2.85h-4.41l-.97 2.85h-2.03l4.2-11.2h2.09l4.17 11.2zm-3.54-4.37l-1.55-4.47c-.05-.15-.1-.38-.15-.7h-.03c-.05.3-.1.53-.16.7l-1.54 4.47h3.43zM59.2 7.88h-3.22v9.62h-1.86V7.88h-3.21V6.3h8.29v1.58zM67.13 17.51h-6.29V6.3h6.04v1.58H62.7v3.17h3.85v1.57H62.7v3.31h4.43v1.58zM69.12 17.51V6.3h3.23c4.13 0 6.2 1.82 6.2 5.46 0 1.73-.57 3.12-1.72 4.17s-2.68 1.57-4.61 1.57h-3.1zm1.86-9.63v8.05h1.48c1.31 0 2.32-.36 3.05-1.08s1.09-1.73 1.09-3.05c0-2.62-1.36-3.93-4.07-3.93h-1.55z"/></g><path fill="#F7931E" d="M77.38 24H11.62C5.21 24 0 18.84 0 12.49v-.99C0 5.16 5.21 0 11.62 0h65.76C83.79 0 89 5.16 89 11.51v.99C89 18.84 83.79 24 77.38 24zM11.62 1.31c-5.68 0-10.3 4.57-10.3 10.19v.99c0 5.62 4.62 10.19 10.3 10.19h65.76c5.68 0 10.3-4.57 10.3-10.19v-.99c0-5.62-4.62-10.19-10.3-10.19H11.62z"/></svg>