<svg xmlns="http://www.w3.org/2000/svg" viewBox="0 0 60 16"><path fill="#f7931e" d="M13.13 8.65c0 2.1-.99 3.15-2.98 3.15q-2.85 0-2.85-3.03V4.2h1.24v4.31c0 1.47.57 2.2 1.71 2.2 1.1 0 1.65-.71 1.65-2.12V4.2h1.24v4.45zm2.99.31v2.71h-1.23V4.2h2.27c.86 0 1.52.2 1.99.6s.71.96.71 1.69-.25 1.32-.74 1.78-1.16.69-2 .69zm0-3.74v2.73h.8c.53 0 .94-.12 1.21-.37.28-.25.42-.59.42-1.04q0-1.32-1.53-1.32zm5 6.45V4.2h2.16c2.75 0 4.13 1.21 4.13 3.64 0 1.15-.38 2.08-1.15 2.78-.76.7-1.79 1.05-3.07 1.05zm1.23-6.41v5.37h.99c.87 0 1.55-.24 2.03-.72s.73-1.16.73-2.03c0-1.75-.9-2.62-2.71-2.62zm12.39 6.41h-1.36l-.67-1.9h-2.94l-.65 1.9h-1.35l2.8-7.47h1.4zm-2.36-2.91-1.04-2.98c-.03-.1-.06-.25-.1-.47h-.02c-.03.2-.07.35-.1.47l-1.03 2.98zm7.42-3.5h-2.15v6.42h-1.24V5.26h-2.14V4.2h5.53zm5.29 6.41H40.9V4.2h4.03v1.05h-2.79v2.11h2.57v1.05h-2.57v2.21h2.95zm1.33 0V4.2h2.16c2.75 0 4.13 1.21 4.13 3.64 0 1.15-.38 2.08-1.15 2.78-.76.7-1.79 1.05-3.07 1.05zm1.23-6.41v5.37h.99c.87 0 1.55-.24 2.03-.72s.73-1.16.73-2.03c0-1.75-.9-2.62-2.71-2.62z"/><path fill="#f7931e" d="M52.16 16H7.84C3.51 16 0 12.56 0 8.33v-.66C0 3.44 3.51 0 7.84 0h44.33C56.48 0 60 3.44 60 7.67v.66c0 4.23-3.52 7.67-7.84 7.67M7.84.87C4.01.87.9 3.92.9 7.67v.66c0 3.75 3.11 6.8 6.94 6.8h44.33c3.83 0 6.94-3.05 6.94-6.8v-.66c0-3.75-3.11-6.8-6.94-6.8z"/></svg>